<?xml version="1.0" encoding="utf-8"?>
<!-- Generator: Adobe Illustrator 25.2.3, SVG Export Plug-In . SVG Version: 6.00 Build 0)  -->
<svg version="1.1" id="Layer_1" xmlns="http://www.w3.org/2000/svg" xmlns:xlink="http://www.w3.org/1999/xlink" x="0px" y="0px"
	 viewBox="0 0 220 220" style="enable-background:new 0 0 220 220;" xml:space="preserve">
<style type="text/css">
	.st0{fill:#FFFFFF;fill-opacity:0.85;stroke:#FFFFFF;stroke-width:11;}
	.st1{fill:#FFFFFF;}
</style>
<circle class="st0" cx="110" cy="110" r="98"/>
<g>
	<path class="st1" d="M131.3,106.9l-10.9,7.8c-3.8,2.7-4.8,4.5-4.8,8.5v4.2H95.4l-0.2-6.6c-0.3-6.7-0.2-11.7,7.4-17l9.3-6.6
		c4.2-2.9,8.8-5.9,8.8-10.7s-3.7-9.1-14.1-9.1s-18.7,6.2-21.1,8.3L76.2,69c1.3-1.1,12.8-11.4,34.1-11.4c21.1,0,33.4,12.2,33.4,26.2
		C143.8,97.8,135.6,103.8,131.3,106.9z M105.5,162.4c-8.2,0-13.8-5.6-13.8-13.1c0-7.7,5.6-13.3,13.8-13.3s13.8,5.6,13.8,13.3
		C119.3,156.8,113.7,162.4,105.5,162.4z"/>
</g>
</svg>
