<?xml version="1.0" encoding="utf-8"?>
<!--  -->
<svg xmlns="http://www.w3.org/2000/svg" viewBox="0 0 40 40" width="40" height="40" preserveAspectRatio="xMidYMid meet"
     style="width: 100%; height: 100%; transform: translate3d(0px, 0px, 0px);">
    <defs>
        <clipPath id="__lottie_element_2">
            <rect width="40" height="40" x="0" y="0"></rect>
        </clipPath>
    </defs>
    <g clip-path="url(#__lottie_element_2)">
        <g transform="matrix(1,0,0,1,0,0)" opacity="1" style="display: block;">
            <g opacity="1" transform="matrix(1,0,0,1,20,20.5)">
                <path fill="rgb(223,239,255)" fill-opacity="1"
                      d=" M18.5,10 C18.5,10 -18.5,10 -18.5,10 C-18.5,10 -18.5,-10 -18.5,-10 C-18.5,-10 18.5,-10 18.5,-10 C18.5,-10 18.5,10 18.5,10z"></path>
                <path stroke-linecap="butt" stroke-linejoin="miter" fill-opacity="0" stroke-miterlimit="10"
                      stroke="rgb(70,135,198)" stroke-opacity="1" stroke-width="1"
                      d=" M18.5,10 C18.5,10 -18.5,10 -18.5,10 C-18.5,10 -18.5,-10 -18.5,-10 C-18.5,-10 18.5,-10 18.5,-10 C18.5,-10 18.5,10 18.5,10z"></path>
            </g>
        </g>
        <g transform="matrix(1,0,0,1,0,0)" opacity="1" style="display: block;">
            <g opacity="1" transform="matrix(1,0,0,1,14.5,20.5)">
                <path fill="rgb(151,204,252)" fill-opacity="1"
                      d=" M-11.609102249145508,10 C-11.609102249145508,10 -13,10 -13,10 C-13,10 -13,-10 -13,-10 C-13,-10 -11.609102249145508,-10 -11.609102249145508,-10 C-11.609102249145508,-10 -11.609102249145508,10 -11.609102249145508,10z"></path>
                <path stroke-linecap="butt" stroke-linejoin="miter" fill-opacity="0" stroke-miterlimit="10"
                      stroke="rgb(70,135,198)" stroke-opacity="1" stroke-width="1"
                      d=" M-11.609102249145508,10 C-11.609102249145508,10 -13,10 -13,10 C-13,10 -13,-10 -13,-10 C-13,-10 -11.609102249145508,-10 -11.609102249145508,-10 C-11.609102249145508,-10 -11.609102249145508,10 -11.609102249145508,10z"></path>
            </g>
        </g>
    </g>
</svg>
