<?xml version="1.0" encoding="utf-8"?>
<svg xmlns="http://www.w3.org/2000/svg" viewBox="0 0 40 40" width="40" height="40" preserveAspectRatio="xMidYMid meet"
     style="width: 100%; height: 100%; transform: translate3d(0px, 0px, 0px);">
    <defs>
        <clipPath id="__lottie_element_11">
            <rect width="40" height="40" x="0" y="0"></rect>
        </clipPath>
    </defs>
    <g clip-path="url(#__lottie_element_11)">
        <g transform="matrix(0.20060990750789642,0,0,0.20060990750789642,3.996950626373291,15.987802505493164)"
           opacity="1" style="display: block;">
            <g opacity="1" transform="matrix(1,0,0,1,5,20)">
                <path fill="rgb(139,183,240)" fill-opacity="1"
                      d=" M0,-3.5 C-1.9329999685287476,-3.5 -3.5,-1.9329999685287476 -3.5,0 C-3.5,1.9329999685287476 -1.9329999685287476,3.5 0,3.5 C1.9329999685287476,3.5 3.5,1.9329999685287476 3.5,0 C3.5,-1.9329999685287476 1.9329999685287476,-3.5 0,-3.5z"></path>
                <path stroke-linecap="butt" stroke-linejoin="miter" fill-opacity="0" stroke-miterlimit="10"
                      stroke="rgb(255,255,255)" stroke-opacity="1" stroke-width="1"
                      d=" M0,-3.5 C-1.9329999685287476,-3.5 -3.5,-1.9329999685287476 -3.5,0 C-3.5,1.9329999685287476 -1.9329999685287476,3.5 0,3.5 C1.9329999685287476,3.5 3.5,1.9329999685287476 3.5,0 C3.5,-1.9329999685287476 1.9329999685287476,-3.5 0,-3.5z"></path>
            </g>
        </g>
        <g transform="matrix(0.6103324294090271,0,0,0.6103324294090271,1.9483377933502197,7.793351173400879)"
           opacity="1" style="display: none;">
            <g opacity="1" transform="matrix(1,0,0,1,5,20)">
                <path fill="rgb(139,183,240)" fill-opacity="1"
                      d=" M0,-3.5 C-1.9329999685287476,-3.5 -3.5,-1.9329999685287476 -3.5,0 C-3.5,1.9329999685287476 -1.9329999685287476,3.5 0,3.5 C1.9329999685287476,3.5 3.5,1.9329999685287476 3.5,0 C3.5,-1.9329999685287476 1.9329999685287476,-3.5 0,-3.5z"></path>
                <path stroke-linecap="butt" stroke-linejoin="miter" fill-opacity="0" stroke-miterlimit="10"
                      stroke="rgb(255,255,255)" stroke-opacity="1" stroke-width="1"
                      d=" M0,-3.5 C-1.9329999685287476,-3.5 -3.5,-1.9329999685287476 -3.5,0 C-3.5,1.9329999685287476 -1.9329999685287476,3.5 0,3.5 C1.9329999685287476,3.5 3.5,1.9329999685287476 3.5,0 C3.5,-1.9329999685287476 1.9329999685287476,-3.5 0,-3.5z"></path>
            </g>
        </g>
        <g transform="matrix(0.8694198727607727,0,0,0.8694198727607727,2.611602783203125,2.611602783203125)" opacity="1"
           style="display: block;">
            <g opacity="1" transform="matrix(1,0,0,1,20,20)">
                <path fill="rgb(139,183,240)" fill-opacity="1"
                      d=" M0,-3.5 C-1.9329999685287476,-3.5 -3.5,-1.9329999685287476 -3.5,0 C-3.5,1.9329999685287476 -1.9329999685287476,3.5 0,3.5 C1.9329999685287476,3.5 3.5,1.9329999685287476 3.5,0 C3.5,-1.9329999685287476 1.9329999685287476,-3.5 0,-3.5z"></path>
                <path stroke-linecap="butt" stroke-linejoin="miter" fill-opacity="0" stroke-miterlimit="10"
                      stroke="rgb(255,255,255)" stroke-opacity="1" stroke-width="1"
                      d=" M0,-3.5 C-1.9329999685287476,-3.5 -3.5,-1.9329999685287476 -3.5,0 C-3.5,1.9329999685287476 -1.9329999685287476,3.5 0,3.5 C1.9329999685287476,3.5 3.5,1.9329999685287476 3.5,0 C3.5,-1.9329999685287476 1.9329999685287476,-3.5 0,-3.5z"></path>
            </g>
        </g>
        <g transform="matrix(0.999753475189209,0,0,0.999753475189209,0.0049304962158203125,0.0049304962158203125)"
           opacity="1" style="display: none;">
            <g opacity="1" transform="matrix(1,0,0,1,20,20)">
                <path fill="rgb(139,183,240)" fill-opacity="1"
                      d=" M0,-3.5 C-1.9329999685287476,-3.5 -3.5,-1.9329999685287476 -3.5,0 C-3.5,1.9329999685287476 -1.9329999685287476,3.5 0,3.5 C1.9329999685287476,3.5 3.5,1.9329999685287476 3.5,0 C3.5,-1.9329999685287476 1.9329999685287476,-3.5 0,-3.5z"></path>
                <path stroke-linecap="butt" stroke-linejoin="miter" fill-opacity="0" stroke-miterlimit="10"
                      stroke="rgb(255,255,255)" stroke-opacity="1" stroke-width="1"
                      d=" M0,-3.5 C-1.9329999685287476,-3.5 -3.5,-1.9329999685287476 -3.5,0 C-3.5,1.9329999685287476 -1.9329999685287476,3.5 0,3.5 C1.9329999685287476,3.5 3.5,1.9329999685287476 3.5,0 C3.5,-1.9329999685287476 1.9329999685287476,-3.5 0,-3.5z"></path>
            </g>
        </g>
        <g transform="matrix(0.9287585616111755,0,0,0.9287585616111755,2.493450164794922,1.4248294830322266)"
           opacity="1" style="display: block;">
            <g opacity="1" transform="matrix(1,0,0,1,35,20)">
                <path fill="rgb(139,183,240)" fill-opacity="1"
                      d=" M0,-3.5 C-1.9329999685287476,-3.5 -3.5,-1.9329999685287476 -3.5,0 C-3.5,1.9329999685287476 -1.9329999685287476,3.5 0,3.5 C1.9329999685287476,3.5 3.5,1.9329999685287476 3.5,0 C3.5,-1.9329999685287476 1.9329999685287476,-3.5 0,-3.5z"></path>
                <path stroke-linecap="butt" stroke-linejoin="miter" fill-opacity="0" stroke-miterlimit="10"
                      stroke="rgb(255,255,255)" stroke-opacity="1" stroke-width="1"
                      d=" M0,-3.5 C-1.9329999685287476,-3.5 -3.5,-1.9329999685287476 -3.5,0 C-3.5,1.9329999685287476 -1.9329999685287476,3.5 0,3.5 C1.9329999685287476,3.5 3.5,1.9329999685287476 3.5,0 C3.5,-1.9329999685287476 1.9329999685287476,-3.5 0,-3.5z"></path>
            </g>
        </g>
        <g transform="matrix(0.5859850645065308,0,0,0.5859850645065308,14.490522384643555,8.280298233032227)"
           opacity="1" style="display: none;">
            <g opacity="1" transform="matrix(1,0,0,1,35,20)">
                <path fill="rgb(139,183,240)" fill-opacity="1"
                      d=" M0,-3.5 C-1.9329999685287476,-3.5 -3.5,-1.9329999685287476 -3.5,0 C-3.5,1.9329999685287476 -1.9329999685287476,3.5 0,3.5 C1.9329999685287476,3.5 3.5,1.9329999685287476 3.5,0 C3.5,-1.9329999685287476 1.9329999685287476,-3.5 0,-3.5z"></path>
                <path stroke-linecap="butt" stroke-linejoin="miter" fill-opacity="0" stroke-miterlimit="10"
                      stroke="rgb(255,255,255)" stroke-opacity="1" stroke-width="1"
                      d=" M0,-3.5 C-1.9329999685287476,-3.5 -3.5,-1.9329999685287476 -3.5,0 C-3.5,1.9329999685287476 -1.9329999685287476,3.5 0,3.5 C1.9329999685287476,3.5 3.5,1.9329999685287476 3.5,0 C3.5,-1.9329999685287476 1.9329999685287476,-3.5 0,-3.5z"></path>
            </g>
        </g>
    </g>
</svg>
