<?xml version="1.0" encoding="utf-8"?>
<!-- Generator: Adobe Illustrator 24.0.2, SVG Export Plug-In . SVG Version: 6.00 Build 0)  -->
<svg version="1.1" id="Layer_1" xmlns="http://www.w3.org/2000/svg" xmlns:xlink="http://www.w3.org/1999/xlink" x="0px" y="0px"
	 viewBox="0 0 220 220" enable-background="new 0 0 220 220" xml:space="preserve">
<circle fill="#FF0000" fill-opacity="0.71" stroke="#FFFFFF" stroke-width="11" cx="110" cy="110" r="98"/>
<path fill-rule="evenodd" clip-rule="evenodd" fill="#FFFFFF" d="M159.4,144l-34-34l34-34c0,0,0,0,0,0c4.2-4.2,4.2-10.9,0-15.1
	l-0.3-0.3c0,0,0,0,0,0c-4.2-4.2-10.9-4.2-15.1,0l-34,34l-34-34c0,0,0,0,0,0c-4.2-4.2-10.9-4.2-15.1,0l-0.3,0.3c0,0,0,0,0,0
	c-4.2,4.2-4.2,10.9,0,15.1l34,34l-34,34c0,0,0,0,0,0c-4.2,4.2-4.2,10.9,0,15.1l0.3,0.3c0,0,0,0,0,0c4.2,4.2,10.9,4.2,15.1,0l34-34
	l34,34c0,0,0,0,0,0c4.2,4.2,10.9,4.2,15.1,0l0.3-0.3c0,0,0,0,0,0C163.5,154.9,163.5,148.1,159.4,144z"/>
</svg>