<?xml version="1.0" encoding="utf-8"?>
<!-- Generator: Adobe Illustrator 25.2.3, SVG Export Plug-In . SVG Version: 6.00 Build 0)  -->
<svg version="1.1" id="Layer_1" xmlns="http://www.w3.org/2000/svg" xmlns:xlink="http://www.w3.org/1999/xlink" x="0px" y="0px"
	 viewBox="0 0 220 220" style="enable-background:new 0 0 220 220;" xml:space="preserve">
<style type="text/css">
	.st0{fill:#FAA300;stroke:#FFFFFF;stroke-width:11;}
	.st1{fill:#FAA300;fill-opacity:0.85;stroke:#FFFFFF;stroke-width:11;}
	.st2{fill-rule:evenodd;clip-rule:evenodd;fill:#FFFFFF;}
</style>
<circle class="st0" cx="110" cy="110" r="98"/>
<circle class="st1" cx="110" cy="110" r="98"/>
<path class="st2" d="M109.3,46.6h0.4c5.9,0,10.7,4.8,10.7,10.7l0,0v73.9c0,5.9-4.8,10.7-10.7,10.7l0,0h-0.4
	c-5.9,0-10.7-4.8-10.7-10.7l0,0V57.3C98.6,51.4,103.4,46.6,109.3,46.6L109.3,46.6z M110,149.1c6.8,0,12.2,5.5,12.2,12.2
	s-5.5,12.2-12.2,12.2s-12.2-5.5-12.2-12.2l0,0C97.7,154.6,103.2,149.1,110,149.1z"/>
</svg>
